<svg width="480" height="40" viewBox="0 0 480 40" fill="none" xmlns="http://www.w3.org/2000/svg">
<path fill-rule="evenodd" clip-rule="evenodd" d="M27.8965 4.1122C28.5457 5.78885 28.6511 7.6623 28.7567 9.53764C28.8631 11.4275 28.9696 13.3194 29.6328 15.0136L29.9074 15.715C30.8162 18.0366 32.0651 20.2089 33.6128 22.16L34.0804 22.7495C35.2099 24.1735 36.7881 25.212 38.3647 26.2495C39.9183 27.2718 41.4704 28.2931 42.59 29.6812C43.5128 30.7734 44.0694 32.1875 44.0694 33.7321C44.0694 36.6594 42.0703 39.1177 39.3684 39.8055C38.5614 40.013 37.7327 40.0518 36.9302 39.9347C35.0946 39.6913 33.3716 38.8186 31.6469 37.945C29.9638 37.0926 28.2791 36.2393 26.4864 35.969L25.7442 35.8571C23.2878 35.4867 20.79 35.4867 18.3335 35.8571L17.5913 35.969C15.7986 36.2393 14.1139 37.0926 12.4308 37.945C10.6533 38.8454 8.8776 39.7447 6.9786 39.9552C5.68618 40.111 4.33446 39.8635 3.1204 39.1596C0.136456 37.4295 -0.885903 33.5979 0.836879 30.6013C0.925651 30.4469 1.01997 30.2977 1.11946 30.1539C2.2508 28.5182 3.97372 27.3844 5.69854 26.2494C7.27518 25.212 8.85341 24.1735 9.98288 22.7495L10.4505 22.16C11.9981 20.2088 13.247 18.0366 14.1558 15.715L14.4304 15.0136C15.0937 13.3194 15.2002 11.4275 15.3065 9.53765C15.4218 7.48999 15.5369 5.44458 16.36 3.65514C16.6612 2.99374 17.0785 2.38117 17.6027 1.85142C18.1497 1.29727 18.7874 0.859941 19.4772 0.549788C20.2988 0.178322 21.1668 6.23236e-05 22.0254 1.1581e-05C22.8914 -0.00166131 23.7671 0.17788 24.5955 0.554025C25.2779 0.862246 25.9091 1.29509 26.4517 1.84251C26.6431 2.03517 26.8204 2.23885 26.983 2.45191C27.3661 2.9511 27.676 3.50995 27.8965 4.1122ZM22.0347 28.7888C21.5626 28.7888 21.2318 28.8085 20.9005 28.8283C20.5679 28.8481 20.2348 28.8679 19.7577 28.8679C17.0069 28.8679 15.0891 25.9198 16.4645 23.5613C16.6773 23.1963 16.7923 23.048 16.9336 22.8657C17.1119 22.6357 17.3322 22.3514 17.8442 21.5094C18.2789 20.7945 18.4261 20.4339 18.5587 20.1088C18.6569 19.8682 18.7471 19.6471 18.9401 19.316C19.6278 18.1368 20.8313 17.5472 22.0347 17.5472C23.2382 17.5472 24.4416 18.1368 25.1293 19.316C25.3223 19.6471 25.4126 19.8682 25.5107 20.1088C25.6434 20.4339 25.7905 20.7945 26.2252 21.5094C26.7372 22.3514 26.9575 22.6357 27.1358 22.8657C27.2772 23.048 27.3921 23.1963 27.605 23.5613C28.9803 25.9198 27.0625 28.8679 24.3118 28.8679C23.8346 28.8679 23.5015 28.8481 23.1689 28.8283C22.8376 28.8085 22.5068 28.7888 22.0347 28.7888Z" fill="white"/>
<path d="M68.0695 27.9488L74.1741 12H76.9051L83.0098 27.9488H79.9575L75.5396 15.1898L71.1218 27.9488H68.0695Z" fill="white"/>
<path d="M109.436 12H94.4962L95.1792 14.7113H100.52V27.9488H103.252V14.7113H108.754L109.436 12Z" fill="white"/>
<path d="M267.303 12H257.503C254.908 12 252.804 14.0888 252.804 16.6648C252.804 19.2417 254.908 21.33 257.503 21.33H262.885C263.402 21.3379 263.895 21.5472 264.257 21.9127C264.62 22.2782 264.823 22.7707 264.823 23.2838C264.823 23.7968 264.62 24.2893 264.257 24.6548C263.895 25.0204 263.402 25.2297 262.885 25.2375H253.591L253.182 27.9488H262.925C265.524 27.9488 267.633 25.8631 267.644 23.284V23.2639C267.644 20.6985 265.549 18.6187 262.965 18.6187H257.583C257.062 18.6187 256.561 18.4129 256.192 18.0465C255.823 17.6801 255.616 17.1832 255.616 16.665C255.616 16.1469 255.823 15.6499 256.192 15.2835C256.561 14.9171 257.062 14.7113 257.583 14.7113H266.869L267.303 12Z" fill="white"/>
<path d="M207.593 12H222.533L221.85 14.7113H216.348V27.9488H213.617V14.7113H208.276L207.593 12Z" fill="white"/>
<path d="M239.034 12H236.303V27.9488H239.034V12Z" fill="white"/>
<path d="M155.348 12L149.243 27.9488H152.295L156.713 15.1898L161.131 27.9488H164.183L158.079 12H155.348Z" fill="white"/>
<path d="M179.101 27.9488V12H182.233L189.944 23.5629V12H192.675V27.9488H189.543L181.832 16.3859V27.9488H179.101Z" fill="white"/>
<path d="M124.228 12V23.7338C124.228 26.0617 126.129 27.9488 128.473 27.9488H136.621L135.817 25.2147H128.473C127.649 25.2147 126.982 24.5517 126.982 23.7338V12H124.228Z" fill="white"/>
<path d="M295.644 27.9488L301.741 12H304.469L310.566 27.9488H307.517L303.105 15.2467L298.693 27.9488H295.644Z" fill="white"/>
<path d="M323.651 19.5187C323.651 15.3662 327.042 12 331.226 12L335.818 12.0001L335.531 14.7341L331.226 14.7341C328.563 14.7341 326.405 16.8762 326.405 19.5187V20.4301C326.405 23.0726 328.563 25.2147 331.226 25.2147L335.531 25.2147L335.818 27.9488L331.226 27.9488C327.042 27.9488 323.651 24.5825 323.651 20.4301V19.5187Z" fill="white"/>
<path d="M355 12L348.903 27.9488H351.951L356.364 15.2467L360.776 27.9488H363.824L357.727 12H355Z" fill="white"/>
<path fill-rule="evenodd" clip-rule="evenodd" d="M377.655 12C377.624 12 377.598 12.0255 377.598 12.057V27.8918C377.598 27.9233 377.624 27.9488 377.655 27.9488H385.289C389.092 27.9488 392.175 24.8886 392.175 21.1136V18.8352C392.175 15.0602 389.092 12 385.289 12H377.655ZM380.352 14.7341V25.2147H385.289C387.571 25.2147 389.421 23.3786 389.421 21.1136V18.8352C389.421 16.5702 387.571 14.7341 385.289 14.7341H380.352Z" fill="white"/>
<path d="M405.949 12H417.886L417.657 14.7341H408.704V18.6074H416.05V21.3414H408.704V25.2147L417.657 25.2146L417.886 27.9487L405.949 27.9488V12Z" fill="white"/>
<path d="M432.808 12V27.9488H435.533V16.4998L441.345 22.8794L447.158 16.4998V27.9488H449.883V12H446.757L441.345 18.8232L435.934 12H432.808Z" fill="white"/>
<path d="M466.651 12H462.968L469.62 20.6261V27.9488H472.385V20.6261L479.037 12H475.354L471.003 17.8987L466.651 12Z" fill="white"/>
</svg>
